-----------------------------
-----------------------------
||                         ||
||_____ _____ _ __    ___  ||
||   __|     |_|  |  |_  | ||
||__   | | | | |  |__|_  | ||
||_____|_|_|_|_|_____|___| ||
||                         ||
||    SMiL3 Presents:      ||
||                         ||
||                         ||
-----------------------------
-----------------------------
|| M O V I E   information ||
-----------------------------
-----------------------------
Despicable.Me.2010.CAM.XviD-SMiL3
 
http://img709.imageshack.us/img709/2116/b758b2a9a15f5d0c9d7f617.png
 
http://www.imdb.com/title/tt1323594/


Plot:
In a happy suburban neighborhood surrounded by white picket fences with flowering rose bushes, sits a black house with a dead lawn. Unbeknownst to the neighbors, hidden beneath this home is a vast secret hideout. Surrounded by a small army of minions, we discover Gru (voiced by Steve Carell), planning the biggest heist in the history of the world. He is going to steal the moon. (Yes, the moon!) Gru delights in all things wicked. Armed with his arsenal of shrink rays, freeze rays, and battle-ready vehicles for land and air, he vanquishes all who stand in his way. Until the day he encounters the immense will of three little orphaned girls who look at him and see something that no one else has ever seen: a potential Dad. The world's greatest villain has just met his greatest challenge: three little girls named Margo, Edith and Agnes. 


Source                           : Dump/s
Complete name                    : Despicable.Me.2010.CAM.XviD-SMiL3.avi
Format                           : AVI
Format/Info                      : Audio Video Interleave
File size                        : 1.36 GiB
Duration                         : 1h 18mn
Overall bit rate                 : 2 478 Kbps
Writing library                  : VirtualDub build 32661/release

Video
ID                               : 0
Format                           : MPEG-4 Visual
Format profile                   : AdvancedSimple@L5
Format settings, BVOP            : Yes
Format settings, QPel            : No
Format settings, GMC             : No warppoints
Format settings, Matrix          : Default (H.263)
Muxing mode                      : Packed bitstream
Codec ID                         : XVID
Codec ID/Hint                    : XviD
Duration                         : 1h 18mn
Bit rate                         : 2 339 Kbps
Width                            : 640 pixels
Height                           : 368 pixels
Display aspect ratio             : 16:9
Frame rate                       : 29.970 fps
Resolution                       : 24 bits
Colorimetry                      : 4:2:0
Scan type                        : Progressive
Bits/(Pixel*Frame)               : 0.331
Stream size                      : 1.28 GiB (94%)
Writing library                  : XviD 1.2.1 (UTC 2008-12-04)

Audio
ID                               : 1
Format                           : MPEG Audio
Format version                   : Version 1
Format profile                   : Layer 3
Codec ID                         : 55
Codec ID/Hint                    : MP3
Duration                         : 1h 18mn
Bit rate mode                    : Constant
Bit rate                         : 128 Kbps
Channel(s)                       : 2 channels
Sampling rate                    : 44.1 KHz
Resolution                       : 16 bits
Stream size                      : 72.0 MiB (5%)
Alignment                        : Split accross interleaves
Interleave, duration             : 33 ms (1.00 video frame)
Interleave, preload duration     : 500 ms
Writing library                  : LAME3.97

Screens: 
http://img687.imageshack.us/img687/1467/6ehxew3179309.png 
http://img517.imageshack.us/img517/5223/s3ghso3099839.png 
http://img411.imageshack.us/img411/3880/25jvaz8.png

Enjoy,
SMiL3-rg

Notes:


-----------------
|| Ripper note ||
-----------------
-----------------
|-Don't want it? Don't download it.
|-Have something we can use? LINE, CAM's, SCR's, DVD or BluRay?
|---> smil3rg[at]hushmail.com
|-Thanks AtomicServerz.net for the seedbox!

*ANOTHER SMiL3 RELEASE